<svg xmlns="http://www.w3.org/2000/svg" height="256" width="256" viewBox="0 0 256 256">
  <g>
    <path id="path1" transform="rotate(0,128,128) translate(1.59999999999999,1.59999999999999) scale(7.9,7.9)  " fill="#000000" d="M13.5,18.699997L7.6000366,23.199997 24.200012,23.199997 18.300049,18.699997 15.900024,21z M25.100037,11.199997L19.5,16.699997 25.100037,20.899994z M6.9000244,11.199997L6.9000244,20.899994 12.5,16.699997z M7.6000366,8.8000031L15.900024,17.099991 24.200012,8.8000031z M16,0C24.800049,0 32,7.1999969 32,16 32,24.800003 24.800049,32 16,32 7.2000122,32 0,24.800003 0,16 0,7.1999969 7.2000122,0 16,0z" />
  </g>
</svg>