<svg id="InitialsLogo_Image" data-name="InitialsLogo Image" xmlns="http://www.w3.org/2000/svg" viewBox="0 0 316.8 180">
	<defs>
		<style>
			path {
				fill: #000000;
			}

			@media (prefers-color-scheme: dark) {
				path {
					fill: #ffffff;
				}
			}
		</style>
	</defs>
	<path d="M85.31,177.85c-15.12-32.48-30-64.49-44.93-96.51l-.54.06v96.17h-36V2.88h15c7.32,0,14.64.05,22,0,1.86,0,3,.35,3.86,2.25q30.14,65,60.38,130a4.94,4.94,0,0,1,.37,3.67C98.89,151.69,92.2,164.53,85.31,177.85Z"/><path d="M101.75,3H139.4l55.17,174.85c-12.29,0-24.16.06-36-.13-1,0-2.33-1.74-2.71-2.92C148.83,152.88,142,130.94,135,109Q118.82,57.6,102.59,6.2C102.27,5.2,102.06,4.17,101.75,3Z"/><path d="M174.56,3h37.83q27.48,87.11,55.08,174.57H229.65Q202.23,90.69,174.56,3Z"/><path d="M313.75,3.12,293.48,65.51c-6-2.27-10.29-6.19-13.85-10.92-8.56-11.35-12.26-24.51-13.92-38.37-.51-4.25-.63-8.55-.95-13.1Z"/>
</svg>